<svg width="24" height="24" viewBox="0 0 24 24" fill="none" xmlns="http://www.w3.org/2000/svg">
<path d="M3.5 22C3.1 22 2.75 21.85 2.45 21.55C2.15 21.25 2 20.9 2 20.5V8.5C2 8.1 2.15 7.75 2.45 7.45C2.75 7.15 3.1 7 3.5 7H9.425V3.5C9.425 3.1 9.575 2.75 9.875 2.45C10.175 2.15 10.525 2 10.925 2H13.1C13.5 2 13.85 2.15 14.15 2.45C14.45 2.75 14.6 3.1 14.6 3.5V7H20.5C20.9 7 21.25 7.15 21.55 7.45C21.85 7.75 22 8.1 22 8.5V20.5C22 20.9 21.85 21.25 21.55 21.55C21.25 21.85 20.9 22 20.5 22H3.5ZM3.5 20.5H20.5V8.5H14.6C14.6 8.96667 14.4458 9.33333 14.1375 9.6C13.8292 9.86667 13.4417 10 12.975 10H11.025C10.575 10 10.1958 9.86667 9.8875 9.6C9.57917 9.33333 9.425 8.96667 9.425 8.5H3.5V20.5ZM5.8 17.825H11.775V17.475C11.775 17.175 11.7 16.9083 11.55 16.675C11.4 16.4417 11.2083 16.2833 10.975 16.2C10.4417 16.0167 10.025 15.8958 9.725 15.8375C9.425 15.7792 9.13333 15.75 8.85 15.75C8.53333 15.75 8.19583 15.7875 7.8375 15.8625C7.47917 15.9375 7.075 16.05 6.625 16.2C6.375 16.2833 6.175 16.4417 6.025 16.675C5.875 16.9083 5.8 17.175 5.8 17.475V17.825ZM14.2 16.15H18.45V14.9H14.2V16.15ZM8.85 14.9C9.23333 14.9 9.55417 14.7667 9.8125 14.5C10.0708 14.2333 10.2 13.9167 10.2 13.55C10.2 13.1667 10.0708 12.8458 9.8125 12.5875C9.55417 12.3292 9.23333 12.2 8.85 12.2C8.48333 12.2 8.16667 12.3292 7.9 12.5875C7.63333 12.8458 7.5 13.1667 7.5 13.55C7.5 13.9167 7.63333 14.2333 7.9 14.5C8.16667 14.7667 8.48333 14.9 8.85 14.9ZM14.2 13.325H18.45V12.075H14.2V13.325ZM10.925 8.5H13.1V3.5H10.925V8.5Z" fill="#95AAFF"/>
</svg>
