<svg width="24" height="24" viewBox="0 0 24 24" fill="none" xmlns="http://www.w3.org/2000/svg">
<path d="M3 20.45V8.15C2.76667 8.11667 2.54167 7.95 2.325 7.65C2.10833 7.35 2 7.025 2 6.675V3.5C2 3.11667 2.15 2.77083 2.45 2.4625C2.75 2.15417 3.1 2 3.5 2H20.5C20.8833 2 21.2292 2.15417 21.5375 2.4625C21.8458 2.77083 22 3.11667 22 3.5V6.675C22 7.025 21.8917 7.35 21.675 7.65C21.4583 7.95 21.2333 8.11667 21 8.15V20.45C21 20.8333 20.8458 21.1875 20.5375 21.5125C20.2292 21.8375 19.8833 22 19.5 22H4.5C4.1 22 3.75 21.8375 3.45 21.5125C3.15 21.1875 3 20.8333 3 20.45ZM4.5 8.175V20.5H19.5V8.175H4.5ZM20.5 6.675V3.5H3.5V6.675H20.5ZM9 13.425H15V11.925H9V13.425ZM4.5 20.5V8.175V20.5Z" fill="#95AAFF"/>
</svg>
