<svg width="24" height="24" viewBox="0 0 24 24" fill="none" xmlns="http://www.w3.org/2000/svg">
<path d="M12 22C9.66667 21.4167 7.75 20.0625 6.25 17.9375C4.75 15.8125 4 13.4833 4 10.95V5L12 2L20 5V10.95C20 13.4833 19.25 15.8125 17.75 17.9375C16.25 20.0625 14.3333 21.4167 12 22ZM12 20.45C13.9167 19.8167 15.4792 18.6208 16.6875 16.8625C17.8958 15.1042 18.5 13.1333 18.5 10.95V6.05L12 3.6L5.5 6.05V10.95C5.5 13.1333 6.10417 15.1042 7.3125 16.8625C8.52083 18.6208 10.0833 19.8167 12 20.45Z" fill="#95AAFF"/>
</svg>
